<svg width="20" height="20" viewBox="0 0 20 20" fill="none" xmlns="http://www.w3.org/2000/svg">
<g clip-path="url(#clip0_227_1500)">
<path d="M11.6654 1.6665H4.9987C4.08203 1.6665 3.34036 2.4165 3.34036 3.33317L3.33203 16.6665C3.33203 17.5832 4.0737 18.3332 4.99036 18.3332H14.9987C15.9154 18.3332 16.6654 17.5832 16.6654 16.6665V6.6665L11.6654 1.6665ZM4.9987 3.33317H10.832L14.9987 7.49984V14.6498L13.4654 13.1165C14.532 11.4998 14.357 9.30817 12.932 7.88317C12.1237 7.07484 11.0654 6.6665 9.9987 6.6665C8.93203 6.6665 7.8737 7.07484 7.05703 7.88317C5.43203 9.50817 5.43203 12.1415 7.05703 13.7582C7.86536 14.5665 8.93203 14.9748 9.9987 14.9748C10.7987 14.9748 11.5987 14.7415 12.2904 14.2832L14.6654 16.6665H4.9987V3.33317ZM11.757 12.5832C11.2904 13.0498 10.6654 13.3165 9.9987 13.3165C9.33203 13.3165 8.70703 13.0582 8.24036 12.5832C7.7737 12.1165 7.50703 11.4915 7.50703 10.8248C7.50703 10.1582 7.76536 9.53317 8.24036 9.0665C8.70703 8.5915 9.33203 8.33317 9.9987 8.33317C10.6654 8.33317 11.2904 8.5915 11.757 9.0665C12.2237 9.53317 12.4904 10.1582 12.4904 10.8248C12.4904 11.4915 12.232 12.1165 11.757 12.5832Z" fill="#848A86"/>
</g>
<defs>
<clipPath id="clip0_227_1500">
<rect width="20" height="20" fill="white"/>
</clipPath>
</defs>
</svg>
